
<svg xmlns="http://www.w3.org/2000/svg" version="1.1" xmlns:xlink="http://www.w3.org/1999/xlink" preserveAspectRatio="none" x="0px" y="0px" width="300px" height="250px" viewBox="0 0 300 250">
<defs>
<g id="_________3_0_Layer0_0_FILL">
<path fill="#000000" stroke="none" d="
M 6.55 3.6
Q 6.35 3.15 5.8 3.15
L 4.15 3.15
Q 3.6 3.15 3.4 3.65
L 0.05 12.9
Q -0.1 13.5 0.45 13.5
L 1.95 13.5
Q 2.5 13.5 2.7 13.35 2.9 13.2 3 12.85
L 3.35 11.85 6.55 11.85 6.9 12.85
Q 7.05 13.5 8 13.5
L 9.5 13.5
Q 10.15 13.5 10 12.9
L 6.55 3.6
M 4.85 5.8
L 5 5.8
Q 5 6.8 5.3 7.85
L 5.85 9.55 4.05 9.55 4.55 7.8
Q 4.85 6.85 4.85 5.8 Z"/>
</g>

<g id="_________3_0_Layer0_1_FILL">
<path fill="#000000" stroke="none" d="
M 18.85 5.9
Q 18.85 3.2 15.6 3.1
L 11.35 3.1
Q 10.7 3.1 10.7 3.75
L 10.7 12.85
Q 10.7 13.45 11.35 13.45
L 15.65 13.45
Q 17.25 13.45 18.2 12.7 19.25 11.95 19.25 10.6 19.35 9.8 18.9 9.1 18.5 8.4 17.75 8.1
L 17.75 8
Q 18.95 7.3 18.85 5.9
M 13.6 5.45
L 15 5.45
Q 15.85 5.45 15.85 6.3 15.85 7.05 15 7.05
L 13.6 7.05 13.6 5.45
M 13.6 11.1
L 13.6 9.4 15.3 9.4
Q 16.2 9.4 16.2 10.25 16.2 11.1 15.3 11.1
L 13.6 11.1 Z"/>
</g>

<g id="_________3_0_Layer0_2_FILL">
<path fill="#000000" stroke="none" d="
M 28.1 3.75
Q 28.1 3.15 27.5 3.15
L 20.25 3.15
Q 19.65 3.15 19.65 3.75
L 19.65 5.05
Q 19.65 5.7 20.25 5.7
L 22.45 5.7 22.45 12.85
Q 22.45 13.5 23.05 13.5
L 24.7 13.5
Q 25.3 13.5 25.3 12.85
L 25.3 5.7 27.5 5.7
Q 28.1 5.7 28.1 5.05
L 28.1 3.75 Z"/>
</g>

<g id="_________3_0_Layer0_3_FILL">
<path fill="#000000" stroke="none" d="
M 37.55 9.6
L 37.55 7
Q 37.55 5.1 36.4 4 35.25 2.9 33.1 2.9 30.95 2.9 29.75 4 28.6 5.1 28.6 7
L 28.6 9.6
Q 28.6 11.55 29.75 12.6 30.95 13.7 33.1 13.7 35.2 13.7 36.4 12.6 37.55 11.55 37.55 9.6
M 31.5 9.75
L 31.5 6.85
Q 31.5 5.45 33.1 5.45 34.7 5.45 34.7 6.85
L 34.7 9.75
Q 34.7 11.15 33.1 11.15 31.5 11.15 31.5 9.75 Z"/>
</g>

<g id="_________3_0_Layer0_4_FILL">
<path fill="#000000" stroke="none" d="
M 49.35 3.75
Q 49.35 3.15 48.75 3.15
L 47.25 3.15
Q 46.7 3.15 46.45 3.6
L 44.05 8.3 41.65 3.6
Q 41.45 3.15 40.8 3.15
L 39.4 3.15
Q 38.8 3.15 38.8 3.75
L 38.8 12.9
Q 38.8 13.5 39.4 13.5
L 40.95 13.5
Q 41.55 13.5 41.55 12.9
L 41.55 10.8
Q 41.55 8.95 41 7
L 41.05 7
Q 41.45 8.35 42 9.4
L 42.8 11
Q 43 11.5 43.5 11.4
L 44.5 11.4
Q 45 11.5 45.2 11
L 47 7 47.15 7
Q 46.6 8.7 46.5 10.8
L 46.5 12.9
Q 46.5 13.5 47.15 13.5
L 48.7 13.5
Q 49.35 13.5 49.35 12.9
L 49.35 3.75 Z"/>
</g>

<g id="_________3_0_Layer0_5_FILL">
<path fill="#000000" stroke="none" d="
M 56.65 3.6
Q 56.45 3.15 55.9 3.15
L 54.25 3.15
Q 53.7 3.15 53.5 3.65
L 50.15 12.9
Q 49.95 13.5 50.55 13.5
L 52.05 13.5
Q 52.95 13.5 53.15 12.85
L 53.45 11.85 56.6 11.85 56.95 12.85
Q 57.1 13.5 58.05 13.5
L 59.6 13.5
Q 60.3 13.5 60.05 12.9
L 56.65 3.6
M 55 5.8
L 55.1 5.8
Q 55.2 6.95 55.45 7.8
L 56 9.5 54.15 9.5 54.7 7.8
Q 54.9 7.15 55 5.8 Z"/>
</g>

<g id="_________3_0_Layer0_6_FILL">
<path fill="#000000" stroke="none" d="
M 68.65 3.75
Q 68.65 3.15 68.05 3.15
L 60.8 3.15
Q 60.2 3.15 60.2 3.75
L 60.2 5.05
Q 60.2 5.7 60.8 5.7
L 63 5.7 63 12.85
Q 63 13.5 63.6 13.5
L 65.25 13.5
Q 65.9 13.5 65.9 12.85
L 65.9 5.7 68.05 5.7
Q 68.65 5.7 68.65 5.05
L 68.65 3.75 Z"/>
</g>

<g id="_________3_0_Layer0_7_FILL">
<path fill="#000000" stroke="none" d="
M 78.35 3.75
Q 78.35 3.15 77.75 3.15
L 76 3.15
Q 75.6 3.05 75.4 3.45
L 73.4 6.85
Q 72.55 8.2 72 9.85
L 71.9 9.85
Q 72.55 8.05 72.45 6.25
L 72.45 3.75
Q 72.45 3.15 71.8 3.15
L 70.15 3.15
Q 69.55 3.15 69.55 3.75
L 69.55 12.85
Q 69.55 13.5 70.15 13.5
L 71.9 13.5
Q 72.3 13.5 72.5 13.2
L 74.5 9.75
Q 75.35 8.35 75.85 6.75
L 76 6.75
Q 75.45 8.4 75.45 10.4
L 75.45 12.85
Q 75.45 13.5 76.1 13.5
L 77.75 13.5
Q 78.35 13.5 78.35 12.85
L 78.35 3.75 Z"/>
</g>

<g id="_________3_0_Layer0_8_FILL">
<path fill="#000000" stroke="none" d="
M 84.85 6.25
Q 84.85 7.05 84 7.05
L 82.85 7.05
Q 82.25 7.05 82.25 7.65
L 82.25 8.85
Q 82.25 9.45 82.85 9.45
L 84.25 9.45
Q 85.15 9.45 85.15 10.35 85.15 11.2 83.8 11.2 82.4 11.2 82 10.25 81.8 9.65 81.2 9.85
L 79.8 10.35
Q 79.2 10.6 79.4 11.15 80.4 13.7 84.05 13.7 88.15 13.7 88.15 10.55 88.25 9.75 87.85 9.05 87.45 8.35 86.7 8.05 87.95 7.4 87.8 5.9 87.8 2.9 84 2.9 80.35 2.9 79.4 5.45 79.2 6.05 79.75 6.25
L 81.2 6.75
Q 81.8 6.95 82 6.4 82.35 5.45 83.75 5.45 84.85 5.45 84.85 6.25 Z"/>
</g>

<g id="_________3_0_Layer0_9_FILL">
<path fill="#000000" stroke="none" d="
M 98.05 3.75
Q 98.05 3.15 97.45 3.15
L 95.7 3.15
Q 95.4 3.1 95.1 3.45
L 93.1 6.85
Q 92.35 8.15 91.7 9.85
L 91.6 9.85
Q 92.25 8.05 92.15 6.25
L 92.15 3.75
Q 92.15 3.15 91.55 3.15
L 89.9 3.15
Q 89.25 3.15 89.25 3.75
L 89.25 12.85
Q 89.25 13.5 89.9 13.5
L 91.65 13.5
Q 92.05 13.5 92.25 13.2
L 94.25 9.75
Q 95.2 8.05 95.6 6.75
L 95.75 6.75
Q 95.15 8.6 95.2 10.4
L 95.2 12.85
Q 95.2 13.5 95.8 13.5
L 97.45 13.5
Q 98.05 13.5 98.05 12.85
L 98.05 3.75 Z"/>
</g>

<g id="_________3_0_Layer0_10_FILL">
<path fill="#000000" stroke="none" d="
M 107.95 6.15
Q 107.8 4.75 106.7 3.9 105.6 3 104.2 3.15
L 100.2 3.15
Q 99.55 3.15 99.55 3.75
L 99.55 12.85
Q 99.55 13.5 100.2 13.5
L 101.85 13.5
Q 102.45 13.5 102.45 12.85
L 102.45 10.4 104.85 10.4
Q 106.25 10.3 107.15 9.25 108.1 8.2 108 6.8
L 107.95 6.15
M 102.45 5.7
L 104.05 5.7
Q 104.9759765625 5.7974609375 105 6.75
L 104.95 6.9
Q 104.9 7.3 104.6 7.6 104.3 7.9 103.9 7.85
L 102.45 7.85 102.45 5.7 Z"/>
</g>

<g id="_________3_0_Layer0_11_FILL">
<path fill="#000000" stroke="none" d="
M 117.25 3.75
Q 117.5 3.15 117 3.2
L 115.2 3.2
Q 114.7 3.2 114.55 3.3 114.35 3.4 114.2 3.75
L 112.85 6.95 111.45 3.75
Q 111.3 3.35 111.05 3.25 110.9 3.2 110.3 3.2
L 108.6 3.2
Q 107.95 3.2 108.25 3.8
L 111.35 10.45 110.25 12.9
Q 109.95 13.55 110.55 13.55
L 112.4 13.55
Q 112.9 13.55 113.05 13.45 113.25 13.35 113.4 13
L 117.25 3.75 Z"/>
</g>

<g id="_________3_0_Layer0_12_FILL">
<path fill="#000000" stroke="none" d="
M 126.3 3.15
L 124.55 3.15
Q 124.15 3.05 123.95 3.45
L 121.95 6.85
Q 121.1 8.2 120.55 9.85
L 120.45 9.85
Q 121.05 8.2 120.95 6.25
L 120.95 3.75
Q 120.95 3.15 120.35 3.15
L 118.7 3.15
Q 118.1 3.15 118.1 3.75
L 118.1 12.85
Q 118.1 13.5 118.7 13.5
L 120.45 13.5
Q 120.9 13.5 121.05 13.2
L 123.05 9.75
Q 123.9 8.4 124.45 6.75
L 124.55 6.75
Q 124 8.65 124 10.4
L 124 12.85
Q 124 13.5 124.65 13.5
L 126.25 13.5
Q 126.9 13.5 126.9 12.85
L 126.9 3.75
Q 126.9 3.15 126.3 3.15
M 124.3 2.25
Q 125.1 1.85 125.5 1 125.65 0.6 125.2 0.45
L 124.05 0.05
Q 123.65 -0.05 123.45 0.25 123.1 0.75 122.55 0.75 122 0.75 121.65 0.25 121.45 -0.1 121 0.05
L 119.95 0.45
Q 119.5 0.7 119.65 1 120.05 1.8 120.85 2.25 121.65 2.7 122.55 2.6 123.5 2.7 124.3 2.25 Z"/>
</g>

<g id="_________3_0_Layer0_13_FILL">
<path fill="#000000" stroke="none" d="
M 136.25 3.75
Q 136.25 3.15 135.6 3.15
L 128.4 3.15
Q 127.8 3.15 127.8 3.75
L 127.8 5.05
Q 127.8 5.7 128.4 5.7
L 130.6 5.7 130.6 12.85
Q 130.6 13.5 131.2 13.5
L 132.85 13.5
Q 133.45 13.5 133.45 12.85
L 133.45 5.7 135.6 5.7
Q 136.25 5.7 136.25 5.05
L 136.25 3.75 Z"/>
</g>

<g id="_________3_0_Layer0_14_FILL">
<path fill="#000000" stroke="none" d="
M 143.05 9.55
Q 143.7 9.55 143.7 8.9
L 143.7 7.6
Q 143.7 7 143.05 7
L 140 7 140 5.7 143.85 5.7
Q 144.5 5.7 144.5 5.05
L 144.5 3.75
Q 144.5 3.15 143.85 3.15
L 137.75 3.15
Q 137.1 3.15 137.1 3.75
L 137.1 12.9
Q 137.1 13.5 137.75 13.5
L 144 13.5
Q 144.6 13.5 144.6 12.9
L 144.6 11.55
Q 144.6 10.95 144 10.95
L 140 10.95 140 9.55 143.05 9.55 Z"/>
</g>

<g id="_________3_0_Layer0_15_FILL">
<path fill="#000000" stroke="none" d="
M 158.25 10.95
L 157.55 10.95 157.55 3.75
Q 157.55 3.15 156.9 3.15
L 150.55 3.15
Q 149.95 3.15 149.95 3.75
L 149.95 7.05
Q 149.95 9.9 148.75 10.95
L 148.45 10.95
Q 147.85 10.95 147.85 11.55
L 147.85 15.1
Q 147.85 15.7 148.45 15.7
L 150.05 15.7
Q 150.65 15.7 150.65 15.1
L 150.65 13.5 156 13.5 156 15.1
Q 156 15.7 156.65 15.7
L 158.25 15.7
Q 158.85 15.7 158.85 15.1
L 158.85 11.55
Q 158.85 10.95 158.25 10.95
M 152.75 5.7
L 154.65 5.7 154.65 10.95 152.1 10.95
Q 152.85 9.15 152.75 7.05
L 152.75 5.7 Z"/>
</g>

<g id="_________3_0_Layer0_16_FILL">
<path fill="#000000" stroke="none" d="
M 168.6 3.75
Q 168.6 3.15 168 3.15
L 166.25 3.15
Q 165.85 3.05 165.65 3.45
L 163.65 6.85
Q 162.7 8.5 162.25 9.85
L 162.15 9.85
Q 162.8 8.05 162.7 6.25
L 162.7 3.75
Q 162.7 3.15 162.05 3.15
L 160.4 3.15
Q 159.8 3.15 159.8 3.75
L 159.8 12.85
Q 159.8 13.5 160.4 13.5
L 162.2 13.5
Q 162.6 13.5 162.8 13.2
L 164.8 9.75
Q 165.65 8.35 166.15 6.75
L 166.25 6.75
Q 165.7 8.65 165.7 10.4
L 165.7 12.85
Q 165.7 13.5 166.35 13.5
L 168 13.5
Q 168.6 13.5 168.6 12.85
L 168.6 3.75 Z"/>
</g>

<g id="_________3_0_Layer0_17_FILL">
<path fill="#000000" stroke="none" d="
M 176.6 9.8
Q 176.05 9.6 175.85 10.2 175.45 11.25 174.3 11.15 172.7 11.15 172.7 9.65
L 172.7 7
Q 172.7 5.45 174.3 5.45 175.4 5.35 175.85 6.4 176.05 7 176.6 6.8
L 178.15 6.25
Q 178.75 6.05 178.55 5.45 177.6 2.9 174.3 2.9 172.2 2.9 171 4 169.85 5.1 169.8 7
L 169.8 9.6
Q 169.8 11.5 171 12.6 172.15 13.7 174.3 13.7 177.6 13.7 178.55 11.15 178.75 10.55 178.15 10.35
L 176.6 9.8 Z"/>
</g>

<g id="_________3_0_Layer0_18_FILL">
<path fill="#000000" stroke="none" d="
M 187.45 3.75
Q 187.45 3.15 186.8 3.15
L 179.6 3.15
Q 179 3.15 179 3.75
L 179 5.05
Q 179 5.7 179.6 5.7
L 181.8 5.7 181.8 12.85
Q 181.8 13.5 182.4 13.5
L 184.05 13.5
Q 184.65 13.5 184.65 12.85
L 184.65 5.7 186.8 5.7
Q 187.45 5.7 187.45 5.05
L 187.45 3.75 Z"/>
</g>

<g id="_________3_0_Layer0_19_FILL">
<path fill="#000000" stroke="none" d="
M 195.5 3.9
Q 194.4 3 193 3.15
L 189 3.15
Q 188.35 3.15 188.35 3.75
L 188.35 12.85
Q 188.35 13.5 189 13.5
L 190.6 13.5
Q 191.2 13.5 191.2 12.85
L 191.2 10.4 193.6 10.4
Q 195 10.3 195.9 9.25 196.85 8.2 196.75 6.8
L 196.75 6.2
Q 196.6 4.8 195.5 3.9
M 192.8 5.7
Q 193.25 5.75 193.5 6.05 193.7833984375 6.3333984375 193.75 6.75 193.752734375 6.775 193.75 6.8
L 193.75 6.95
Q 193.7 7.35 193.4 7.65 193.05 7.9 192.65 7.85
L 191.2 7.85 191.2 5.7 192.8 5.7 Z"/>
</g>

<g id="_________3_0_Layer0_20_FILL">
<path fill="#000000" stroke="none" d="
M 206.55 3.75
Q 206.55 3.15 206 3.15
L 204.2 3.15
Q 203.8 3.05 203.6 3.45
L 201.6 6.85
Q 200.65 8.5 200.2 9.85
L 200.1 9.85
Q 200.75 8.05 200.65 6.25
L 200.65 3.75
Q 200.65 3.15 200 3.15
L 198.35 3.15
Q 197.75 3.15 197.75 3.75
L 197.75 12.85
Q 197.75 13.5 198.35 13.5
L 200.15 13.5
Q 200.55 13.5 200.75 13.2
L 202.75 9.75
Q 203.6 8.35 204.1 6.75
L 204.2 6.75
Q 203.65 8.65 203.65 10.4
L 203.65 12.85
Q 203.65 13.5 204.3 13.5
L 205.95 13.5
Q 206.55 13.5 206.55 12.85
L 206.55 3.75 Z"/>
</g>

<g id="_________3_0_Layer0_21_FILL">
<path fill="#000000" stroke="none" d="
M 215.7 3.75
Q 215.7 3.15 215.05 3.1
L 208.65 3.1
Q 208 3.1 208 3.75
L 208 12.9
Q 208 13.5 208.6 13.5
L 213.45 13.5
Q 214.75 13.4 215.6 12.45 216.45 11.45 216.35 10.15 216.4 9.95 216.35 9.65 216.25 8.35 215.25 7.55 214.25 6.7 213 6.8
L 210.9 6.8 210.9 5.5 215.1 5.5
Q 215.7 5.5 215.7 4.9
L 215.7 3.75
M 212.35 11.1
L 210.9 11.1 210.9 9.15 212.35 9.15
Q 213.45 9.15 213.45 10.1 213.45 11.1 212.35 11.1 Z"/>
</g>

<g id="_________3_0_Layer0_22_FILL">
<path fill="#000000" stroke="none" d="
M 225.65 3.75
Q 225.95 3.15 225.35 3.2
L 223.6 3.2
Q 223.1 3.2 222.95 3.3 222.75 3.4 222.6 3.75
L 221.25 6.95 219.85 3.75
Q 219.7 3.35 219.45 3.25 219.3 3.2 218.75 3.2
L 217 3.2
Q 216.45 3.2 216.65 3.8
L 219.75 10.45 218.65 12.9
Q 218.4 13.55 219 13.55
L 220.8 13.55
Q 221.3 13.55 221.45 13.45 221.65 13.35 221.8 13
L 225.65 3.75 Z"/>
</g>

<g id="_________3_0_Layer0_23_FILL">
<path fill="#000000" stroke="none" d="
M 236.2 11.55
Q 236.2 10.95 235.6 10.95
L 235 10.95 235 3.75
Q 235 3.15 234.35 3.15
L 232.75 3.15
Q 232.1 3.15 232.1 3.75
L 232.1 10.95 229.4 10.95 229.4 3.75
Q 229.4 3.15 228.75 3.15
L 227.1 3.15
Q 226.5 3.15 226.5 3.75
L 226.5 12.85
Q 226.5 13.5 227.1 13.5
L 233.45 13.5 233.45 15.1
Q 233.45 15.75 234.05 15.75
L 235.55 15.75
Q 236.2 15.75 236.2 15.1
L 236.2 11.55 Z"/>
</g>

<g id="_________3_0_Layer0_24_FILL">
<path fill="#000000" stroke="none" d="
M 246 3.75
Q 246 3.15 245.35 3.15
L 243.6 3.15
Q 243.3 3.1 243 3.45
L 241 6.85
Q 240.25 8.15 239.6 9.85
L 239.5 9.85
Q 240.15 8.05 240.05 6.25
L 240.05 3.75
Q 240.05 3.15 239.45 3.15
L 237.8 3.15
Q 237.15 3.15 237.15 3.75
L 237.15 12.85
Q 237.15 13.5 237.8 13.5
L 239.55 13.5
Q 240 13.5 240.15 13.2
L 242.15 9.75
Q 243.1 8.05 243.5 6.75
L 243.65 6.75
Q 243.05 8.6 243.1 10.4
L 243.1 12.85
Q 243.1 13.5 243.7 13.5
L 245.35 13.5
Q 246 13.5 246 12.85
L 246 3.75 Z"/>
</g>

<g id="_________3_0_Layer0_25_FILL">
<path fill="#000000" stroke="none" d="
M 260.35 9.6
L 260.35 7
Q 260.35 5.1 259.25 4 258.05 2.9 256 2.9 253.95 2.9 252.8 3.9 251.6 4.95 251.65 6.7
L 251.65 7 250.35 7 250.35 3.75
Q 250.35 3.15 249.75 3.15
L 248.1 3.15
Q 247.45 3.15 247.45 3.75
L 247.45 12.85
Q 247.45 13.5 248.1 13.5
L 249.75 13.5
Q 250.35 13.5 250.35 12.85
L 250.35 9.5 251.65 9.5 251.65 9.85
Q 251.65 11.65 252.75 12.65 253.9 13.7 256 13.7 258.1 13.7 259.25 12.6 260.35 11.55 260.35 9.6
M 255.05 5.7
Q 255.5 5.4 256 5.45 257.45 5.45 257.45 6.85
L 257.45 9.75
Q 257.45 11.15 256 11.15
L 255.7 11.15
Q 255.15 11.1 254.8 10.7 254.45 10.3 254.5 9.75
L 254.5 6.55
Q 254.6 6 255.05 5.7 Z"/>
</g>

<g id="_________3_0_Layer0_26_FILL">
<path fill="#000000" stroke="none" d="
M 68.75 21.25
Q 68.75 20.6 68.15 20.6
L 60.95 20.6
Q 60.3 20.6 60.3 21.25
L 60.3 22.55
Q 60.3 23.15 60.95 23.15
L 63.1 23.15 63.1 30.35
Q 63.1 30.95 63.7 30.95
L 65.35 30.95
Q 66 30.95 66 30.35
L 66 23.15 68.15 23.15
Q 68.75 23.15 68.75 22.55
L 68.75 21.25 Z"/>
</g>

<g id="_________3_0_Layer0_27_FILL">
<path fill="#000000" stroke="none" d="
M 73.75 20.4
Q 71.6 20.4 70.4 21.5 69.25 22.6 69.25 24.45
L 69.25 27.1
Q 69.25 29 70.45 30.1 71.65 31.2 73.75 31.2 75.9 31.2 77.1 30.1 78.25 29 78.25 27.1
L 78.25 24.5
Q 78.25 22.55 77.1 21.5 75.9 20.4 73.75 20.4
M 73.75 22.95
L 73.75 23
Q 75.35 23 75.35 24.35
L 75.35 27.2
Q 75.35 28.6 73.75 28.6 72.15 28.6 72.15 27.2
L 72.15 24.35
Q 72.15 22.95 73.75 22.95 Z"/>
</g>

<g id="_________3_0_Layer0_28_FILL">
<path fill="#000000" stroke="none" d="
M 87.55 23.35
Q 87.55 22.05 86.7 21.3 85.85 20.6 84.35 20.6
L 80.05 20.6
Q 79.45 20.6 79.45 21.25
L 79.45 30.4
Q 79.45 31 80.05 31
L 84.4 31
Q 86 31 86.95 30.25 88 29.45 88 28.05 88.1 27.25 87.65 26.6 87.25 25.9 86.55 25.55
L 86.55 25.5
Q 87.7 24.75 87.55 23.35
M 82.3 23
L 83.75 23
Q 84.65 23 84.65 23.8 84.65 24.6 83.75 24.6
L 82.3 24.6 82.3 23
M 84 26.9
Q 84.9 26.9 84.9 27.75 84.9 28.6 84 28.6
L 82.3 28.6 82.3 26.9 84 26.9 Z"/>
</g>

<g id="_________3_0_Layer0_29_FILL">
<path fill="#000000" stroke="none" d="
M 94.9 21.15
Q 94.7 20.65 94.15 20.65
L 92.5 20.65
Q 91.95 20.65 91.75 21.15
L 88.4 30.4
Q 88.2 31 88.75 31
L 90.3 31
Q 91.15 31 91.35 30.4
L 91.7 29.4 94.85 29.4 95.2 30.4
Q 95.25 31 96.25 31
L 97.85 31
Q 98.5 31 98.25 30.4
L 94.9 21.15
M 93.15 23.3
L 93.3 23.3
Q 93.4052734375 24.4677734375 93.65 25.3
L 94.15 27 92.35 27 92.9 25.3
Q 93.15 24.5 93.15 23.3 Z"/>
</g>

<g id="_________3_0_Layer0_30_FILL">
<path fill="#000000" stroke="none" d="
M 107.45 24.25
L 107.45 23.65
Q 107.3 22.25 106.2 21.35 105.1 20.45 103.65 20.6
L 99.65 20.6
Q 99.05 20.6 99.05 21.25
L 99.05 30.35
Q 99.05 30.95 99.65 30.95
L 101.35 30.95
Q 102 30.95 102 30.35
L 102 27.85 103.7 27.85
Q 104 27.95 104.3 27.85 105.7 27.8 106.65 26.7 107.55 25.65 107.45 24.25
M 104.45 24.25
L 104.45 24.35
Q 104.45 24.75 104.15 25.05 103.8 25.35 103.4 25.3
L 102 25.3 102 23.2 103.35 23.2 103.55 23.15
Q 103.95 23.2 104.25 23.5 104.5 23.85 104.45 24.25 Z"/>
</g>

<g id="_________3_0_Layer0_31_FILL">
<path fill="#000000" stroke="none" d="
M 112.7 20.4
Q 110.55 20.4 109.35 21.5 108.2 22.6 108.2 24.45
L 108.2 27.1
Q 108.2 29 109.4 30.1 110.6 31.2 112.7 31.2 114.85 31.2 116.05 30.1 117.2 29 117.2 27.1
L 117.2 24.5
Q 117.2 22.55 116.05 21.5 114.85 20.4 112.7 20.4
M 112.7 22.95
L 112.7 23
Q 114.3 23 114.3 24.35
L 114.3 27.2
Q 114.3 28.6 112.7 28.6 111.1 28.6 111.1 27.2
L 111.1 24.35
Q 111.1 22.95 112.7 22.95 Z"/>
</g>

<g id="_________3_0_Layer0_32_FILL">
<path fill="#000000" stroke="none" d="
M 125.65 21.3
Q 124.8 20.6 123.25 20.6
L 119 20.6
Q 118.35 20.6 118.35 21.25
L 118.35 30.4
Q 118.35 31 119 31
L 123.35 31
Q 124.95 31 125.95 30.25 127 29.45 127 28.05 127.1 26.25 125.5 25.55
L 125.5 25.5
Q 126.65 24.75 126.5 23.35 126.5 22.05 125.65 21.3
M 123.6 23.8
Q 123.6 24.6 122.7 24.6
L 121.3 24.6 121.3 23 122.7 23
Q 123.6 23 123.6 23.8
M 123 26.9
Q 123.9 26.9 123.9 27.75 123.9 28.6 123 28.6
L 121.3 28.6 121.3 26.9 123 26.9 Z"/>
</g>

<g id="_________3_0_Layer0_33_FILL">
<path fill="#000000" stroke="none" d="
M 130.25 22.95
Q 130.05 23.55 130.6 23.75
L 132.05 24.25
Q 132.6 24.45 132.85 23.85 133.2 22.9 134.55 22.9 135.7 22.9 135.7 23.7 135.7 24.5 134.8 24.5
L 133.65 24.5
Q 133.05 24.5 133.05 25.15
L 133.05 26.3
Q 133.05 26.9 133.65 26.9
L 135.05 26.9
Q 135.95 26.9 135.95 27.8 135.95 28.65 134.6 28.65 133.2 28.65 132.8 27.7 132.6 27.1 132 27.3
L 130.6 27.8
Q 130 28.05 130.2 28.6 131.2 31.15 134.85 31.15 139 31.15 139 28 139.1 27.2 138.65 26.55 138.2 25.85 137.5 25.55 138.75 24.85 138.6 23.4 138.6 20.4 134.85 20.4 131.2 20.4 130.25 22.95 Z"/>
</g>

<g id="_________3_0_Layer0_34_FILL">
<path fill="#000000" stroke="none" d="
M 145.95 21.15
Q 145.75 20.65 145.15 20.65
L 143.5 20.65
Q 142.95 20.65 142.75 21.15
L 139.4 30.4
Q 139.2 31 139.8 31
L 141.3 31
Q 142.2 31 142.4 30.4
L 142.7 29.4 145.85 29.4 146.2 30.4
Q 146.35 31 147.3 31
L 148.85 31
Q 149.45 31 149.3 30.4
L 145.95 21.15
M 144.2 23.3
L 144.35 23.3
Q 144.4544921875 24.371484375 144.65 25.3
L 145.2 27 143.4 27 143.9 25.3
Q 144.2 24.35 144.2 23.3 Z"/>
</g>

<g id="_________3_0_Layer0_35_FILL">
<path fill="#000000" stroke="none" d="
M 157.6 21.25
Q 157.6 20.6 157 20.6
L 156.1 20.6
Q 155.55 20.6 155.25 20.85
L 152.4 22.5
Q 151.85 22.85 152.1 23.35
L 152.8 24.55
Q 153.1 25.2 153.75 24.8
L 154.75 24.25 154.75 30.35
Q 154.75 30.95 155.35 30.95
L 157 30.95
Q 157.6 30.95 157.6 30.35
L 157.6 21.25 Z"/>
</g>

<g id="_________3_0_Layer0_36_FILL">
<path fill="#000000" stroke="none" d="
M 171.05 21.25
Q 171.05 20.6 170.45 20.6
L 164.1 20.6
Q 163.45 20.6 163.45 21.25
L 163.45 24.55
Q 163.45 27.4 162.3 28.4
L 162 28.4
Q 161.35 28.4 161.35 29
L 161.35 32.6
Q 161.35 33.15 162 33.15
L 163.6 33.15
Q 164.2 33.15 164.2 32.6
L 164.2 31 169.55 31 169.55 32.6
Q 169.55 33.15 170.15 33.15
L 171.75 33.15
Q 172.1 33.15 172.25 33.05 172.35 32.95 172.35 32.6
L 172.35 29
Q 172.35 28.4 171.75 28.4
L 171.05 28.4 171.05 21.25
M 166.3 24.55
L 166.3 23.15 168.2 23.15 168.2 28.4 165.6 28.4
Q 166.4 26.55 166.3 24.55 Z"/>
</g>

<g id="_________3_0_Layer0_37_FILL">
<path fill="#000000" stroke="none" d="
M 180.7 21.25
Q 180.7 20.6 180.1 20.6
L 174 20.6
Q 173.35 20.6 173.35 21.25
L 173.35 30.35
Q 173.35 30.95 174 30.95
L 180.2 30.95
Q 180.85 30.95 180.85 30.35
L 180.85 29
Q 180.85 28.4 180.2 28.4
L 176.2 28.4 176.2 27 179.3 27
Q 179.9 27 179.9 26.4
L 179.9 25.05
Q 179.9 24.45 179.3 24.45
L 176.2 24.45 176.2 23.15 180.05 23.15
Q 180.7 23.15 180.7 22.55
L 180.7 21.25 Z"/>
</g>

<g id="_________3_0_Layer0_38_FILL">
<path fill="#000000" stroke="none" d="
M 190.5 21.25
Q 190.5 20.6 189.9 20.6
L 188.2 20.6
Q 187.6 20.6 187.6 21.25
L 187.6 24.45 184.8 24.45 184.8 21.25
Q 184.8 20.6 184.15 20.6
L 182.5 20.6
Q 181.9 20.6 181.9 21.25
L 181.9 30.35
Q 181.9 30.95 182.5 30.95
L 184.15 30.95
Q 184.8 30.95 184.8 30.35
L 184.8 27 187.6 27 187.6 30.35
Q 187.6 30.95 188.2 30.95
L 189.85 30.95
Q 190.5 30.95 190.5 30.35
L 190.5 21.25 Z"/>
</g>

<g id="_________3_0_Layer0_39_FILL">
<path fill="#000000" stroke="none" d="
M 192.6 20.6
Q 192 20.6 192 21.25
L 192 30.35
Q 192 31 192.6 31
L 197.25 31
Q 198.7 30.9 199.6 29.8 200.5 28.75 200.4 27.3
L 200.35 26.7
Q 200.25 25.3 199.15 24.45 198.05 23.55 196.65 23.7
L 194.85 23.7 194.85 21.25
Q 194.85 20.6 194.25 20.6
L 192.6 20.6
M 197.4 27.35
L 197.35 27.35 197.35 27.5
Q 197.35 27.9 197.05 28.2 196.7 28.45 196.3 28.4
L 194.85 28.4 194.85 26.3 196.3 26.3 196.45 26.25
Q 196.85 26.3 197.15 26.6 197.45 26.95 197.4 27.35 Z"/>
</g>

<g id="Layer3_0_FILL">
<path fill="#F4FCFC" stroke="none" d="
M 135.2 7.15
Q 135.2 5.15 133.8 3.8 132.4 2.4 130.45 2.4
L 7.1 2.4
Q 5.1 2.4 3.75 3.8 2.35 5.15 2.35 7.15
L 2.35 121
Q 2.35 122.95 3.75 124.35 5.1 125.75 7.1 125.75
L 130.45 125.75
Q 132.4 125.75 133.8 124.35 135.2 122.95 135.2 121
L 135.2 7.15 Z"/>
</g>

<g id="Layer3_1_FILL">
<path fill="#E3EBF1" stroke="none" d="
M 90.1 23.75
L 111.5 45.15 118.65 38.05 97.25 16.65 90.1 23.75 Z"/>
</g>

<g id="Layer3_2_FILL">
<path fill="#EAF1F5" stroke="none" d="
M 135.75 40.35
L 135.75 20.95 92.55 64.15 71.15 42.75 111.5 2.4 92.5 2.4 61.65 33.25 30.85 2.4 11.85 2.4 52.15 42.75 2.35 92.5 2.35 111.5 61.65 52.2 83.05 73.6 59.25 97.4 16.6 97.4 2.4 111.6 45.1 111.6 29.1 127.6 48.5 127.6 92.75 83.3 135.2 125.75 135.2 106.75 102.25 73.85 135.75 40.35 Z"/>
</g>

<g id="Layer3_4_FILL">
<path fill="#F5F5F5" stroke="none" d="
M 25.65 91.1
Q 25 91.85 25 92.7 25 93.7 25.7 94.4 26.4 95.1 27.35 95.1
L 56.9 94.9
Q 57.85 94.9 58.55 94.2
L 67.1 85.65
Q 67.8 85 67.8 84 67.8 83 67.1 82.3
L 52.4 67.65
Q 51.75 66.95 50.75 66.95 49.75 66.95 49.05 67.65
L 25.65 91.1 Z"/>
</g>

<g id="Layer3_5_FILL">
<path fill="#F5F5F5" stroke="none" d="
M 79.45 100.1
L 55.7 123.8 90.1 123.55
Q 93.9 120.6 96.25 118.55 100.7 114.7 99.6 113.6
L 86.1 100.1
Q 84.7 98.7 82.75 98.7 80.8 98.7 79.45 100.1 Z"/>
</g>

<g id="Layer3_6_FILL">
<path fill="#F5F5F5" stroke="none" d="
M 108.4 70.45
Q 107 71.85 107 73.8 107 75.75 108.4 77.15
L 121.9 90.65
Q 123.05 91.75 126.9 87.25 128.95 84.9 131.85 81.15
L 132.1 46.75 108.4 70.45 Z"/>
</g>

<g id="Layer3_7_FILL">
<path fill="#F5F5F5" stroke="none" d="
M 113.35 107.35
Q 112.55 106.55 111.45 106.55 110.3 106.55 109.5 107.35
L 105.3 111.55
Q 104.5 112.4 104.5 113.5 104.5 114.6 105.3 115.4
L 113.8 123.9 119.95 117.8
Q 120.75 117 120.75 115.85 120.75 114.75 119.95 113.95
L 113.35 107.35 Z"/>
</g>

<g id="Layer3_8_FILL">
<path fill="#F5F5F5" stroke="none" d="
M 100.35 36.35
Q 99.55 35.55 98.45 35.55 97.35 35.55 96.55 36.35
L 92.3 40.55
Q 91.5 41.4 91.5 42.5 91.5 43.6 92.3 44.4
L 100.85 52.9 107 46.8
Q 107.8 46 107.8 44.85 107.8 43.75 107 42.95
L 100.35 36.35 Z"/>
</g>

<g id="Layer3_9_FILL">
<path fill="#F5F5F5" stroke="none" d="
M 42.85 47.25
Q 42.85 45.3 41.5 43.9
L 24.65 27 5.45 46.25
Q 4.05 47.65 4.05 49.6 4.05 51.55 5.45 52.95
L 19 66.45
Q 20.35 67.8 22.3 67.8 24.2 67.8 25.6 66.45
L 41.5 50.55
Q 42.85 49.2 42.85 47.25 Z"/>
</g>

<g id="Layer3_10_FILL">
<path fill="#CDD7DB" stroke="none" d="
M 82.8 36.8
Q 82.1 36.15 81.1 36.15 80.15 36.15 79.45 36.8
L 75.2 41.05
Q 74.5 41.75 74.5 42.7 74.5 43.7 75.2 44.4
L 90.75 59.95
Q 91.45 60.65 92.45 60.65 93.45 60.65 94.1 59.95
L 98.35 55.7
Q 99.05 55.05 99.05 54.05 99.05 53.05 98.35 52.35
L 82.8 36.8 Z"/>
</g>

<g id="Layer3_11_FILL">
<path fill="#CDD7DB" stroke="none" d="
M 135.5 2.1
Q 133.4 0 130.45 0
L 7.1 0
Q 4.15 0 2.05 2.1 0 4.2 0 7.15
L 0 121
Q 0 123.95 2.05 126.05 4.15 128.1 7.1 128.1
L 130.45 128.1
Q 133.4 128.1 135.5 126.05 137.55 123.95 137.55 121
L 137.55 7.15
Q 137.55 4.2 135.5 2.1
M 133.8 3.8
Q 135.2 5.15 135.2 7.15
L 135.2 121
Q 135.2 123 133.8 124.35 132.4 125.75 130.45 125.75
L 7.1 125.75
Q 5.15 125.75 3.75 124.4 2.35 123 2.35 121.05
L 2.35 7.15
Q 2.35 5.2 3.75 3.8 5.1 2.4 7.05 2.4
L 130.45 2.4
Q 132.4 2.4 133.8 3.8 Z"/>
</g>

<g id="Layer3_12_FILL">
<path fill="#CDD7DB" stroke="none" d="
M 29.05 60
L 22.2 53.15 9.7 65.65
Q 9.05 66.35 9.05 67.35 9.05 68.35 9.7 69
L 14.85 74.2
Q 15.55 74.9 16.55 74.9 17.55 74.9 18.2 74.2
L 29.05 63.35
Q 29.75 62.7 29.75 61.7 29.75 60.7 29.05 60 Z"/>
</g>

<g id="Layer3_13_FILL">
<path fill="#CDD7DB" stroke="none" d="
M 46.35 46.05
Q 47.75 44.65 47.75 42.7 47.75 40.75 46.35 39.35
L 23.4 16.45 9.25 30.6 35.5 56.9 46.35 46.05 Z"/>
</g>

<g id="Layer3_14_FILL">
<path fill="#CDD7DB" stroke="none" d="
M 70.45 64.35
L 61.45 73.35 54.1 65.95
Q 53.4 65.3 52.4 65.3 51.45 65.3 50.75 65.95
L 49.55 67.15
Q 48.9 67.85 48.9 68.8 48.9 69.8 49.55 70.5
L 66 86.9 77.85 75.05
Q 78.55 74.4 78.55 73.4 78.55 72.4 77.85 71.7
L 70.45 64.35 Z"/>
</g>

<g id="Layer3_15_FILL">
<path fill="#CDD7DB" stroke="none" d="
M 90.1 28.95
Q 88.75 28.95 87.8 29.95 86.8 30.9 86.8 32.3 86.8 33.65 87.8 34.65 88.75 35.6 90.1 35.6 91.5 35.6 92.45 34.65 93.45 33.65 93.45 32.3 93.45 30.9 92.45 29.95 91.5 28.95 90.1 28.95 Z"/>
</g>

<g id="_________4_0_Layer0_0_FILL">
<path fill="#F5F5F5" stroke="none" d="
M 300 42
L 300 2 0 2 0 42 300 42 Z"/>
</g>

<g id="_________4_0_Layer0_1_FILL">
<path fill="#DFDFDF" stroke="none" d="
M 300 2
L 300 0 0 0 0 2 300 2 Z"/>
</g>

<g id="_________4_0_Layer0_2_FILL">
<path fill="#FF972E" stroke="none" d="
M 143 34.8
Q 148.35 34.8 152.2 31 156 27.2 156 21.85 156 16.5 152.2 12.7 148.35 8.9 143 8.9
L 36.95 8.9
Q 31.6 8.9 27.8 12.7 24 16.5 24 21.85 24 27.2 27.8 31 31.6 34.8 36.95 34.8
L 143 34.8 Z"/>
</g>

<g id="_________4_0_Layer0_3_FILL">
<path fill="#FFFFFF" stroke="none" d="
M 48.25 20.8
L 48.95 21
Q 49.4 21.15 49.6 20.7 50.1 19.6 51.3 19.7 52.65 19.7 52.65 20.7 52.65 21.5 51.75 21.5
L 50.4 21.5
Q 49.95 21.5 49.95 21.95
L 49.95 22.45
Q 49.95 22.95 50.4 22.95
L 51.85 22.95
Q 52.85 22.95 52.85 23.8 52.85 24.8 51.35 24.8 50.8 24.9 50.25 24.65 49.7 24.35 49.5 23.8 49.3 23.35 48.8 23.5
L 48.15 23.7 47.95 23.8
Q 47.55 24 47.85 24.4 48.3 25.4 49.25 25.95 50.25 26.5 51.35 26.4 54.6 26.4 54.6 24 54.85 22.7 53.55 22.1
L 53.55 22
Q 54.55 21.6 54.45 20.5 54.45 18.15 51.3 18.15 50.2 18.05 49.3 18.6 48.35 19.1 47.95 20.1
L 47.9 20.25
Q 47.8 20.7 48.25 20.8
M 48.4 16
Q 48.55 15.45 48.15 15.45
L 47.25 15.5
Q 46.8 15.5 46.65 15.6 46.5 15.65 46.35 15.95
L 44.1 20.95 41.6 15.95
Q 41.4 15.6 41.25 15.55 41.15 15.5 40.6 15.5
L 39.75 15.5
Q 39.15 15.5 39.5 16
L 43.1 23 41.8 25.6
Q 41.55 26.15 42.05 26.15
L 43.05 26.15
Q 43.7 26.15 43.9 25.65
L 48.4 16
M 71.15 18.8
L 71.15 19.5
Q 71.15 20 71.65 20
L 73.65 20 73.65 25.7
Q 73.65 26.15 74.1 26.15
L 74.9 26.15
Q 75.35 26.15 75.35 25.7
L 75.35 20 77.3 20
Q 77.8 20 77.8 19.5
L 77.8 18.85
Q 77.8 18.4 77.3 18.4
L 71.65 18.35
Q 71.15 18.35 71.15 18.8
M 64.05 19.7
Q 63.85 20.15 64.3 20.35
L 64.9 20.6
Q 65.25 20.75 65.55 20.4 66.15 19.55 67.1 19.65 68.6 19.65 68.6 21.15
L 68.6 21.55 67.2 21.5
Q 65.35 21.5 64.55 22.05 63.75 22.55 63.75 23.9 63.65 25 64.5 25.75 65.75 26.5 67.1 26.35 68.45 26.45 69.8 25.95 70.35 25.7 70.35 25.1
L 70.35 21.2
Q 70.35 18.15 67.15 18.15 66.2 18.05 65.35 18.45 64.5 18.9 64.05 19.7
M 68.6 23
L 68.6 24.6
Q 68.6 24.8 68.45 24.8 67.6 24.95 66.95 24.9 66.15 24.9 65.85 24.65 65.55 24.45 65.55 23.9 65.55 22.9 67 22.9
L 68.6 23
M 62 18.35
L 61.15 18.35
Q 60.7 18.35 60.7 18.8
L 60.7 21.35 57.55 21.35 57.55 18.8
Q 57.55 18.35 57.05 18.35
L 56.25 18.35
Q 55.8 18.35 55.8 18.8
L 55.8 25.65
Q 55.8 26.15 56.25 26.15
L 57.05 26.15
Q 57.55 26.15 57.55 25.65
L 57.55 23 60.7 23 60.7 25.65
Q 60.7 26.1 61.15 26.1
L 62 26.1
Q 62.45 26.1 62.45 25.65
L 62.45 18.8
Q 62.45 18.35 62 18.35
M 89.85 19.7
L 89.85 23.3
Q 89.85 24.75 90.75 25.5 91.65 26.3 93.3 26.3 96.75 26.3 96.75 23.3
L 96.75 21.6
Q 96.8 21.4 96.75 21.1 96.65 19.95 95.75 19.2 94.85 18.45 93.7 18.55 92.3 18.4 91.45 19.5
L 91.45 19.25
Q 91.35 18.1 92 17.35 92.85 16.65 94 16.8
L 94.5 16.8
Q 95.3 16.85 96.1 16.55 96.55 16.35 96.4 15.9
L 96.2 15.35
Q 96 14.75 95.5 15 95.1 15.2 94.45 15.2
L 94 15.15
Q 92.15 15 90.8 16.25 89.7 17.75 89.85 19.7
M 95.05 21.65
L 95.05 23.3
Q 95.05 24.8 93.3 24.8 91.6 24.8 91.6 23.3
L 91.6 21.5
Q 91.7 20.15 93.3 20.15 95.05 20.15 95.05 21.65
M 84.45 21.15
Q 83.65 20.5 82.55 20.6
L 80.6 20.6 80.6 18.8
Q 80.6 18.35 80.1 18.35
L 79.3 18.35
Q 78.85 18.35 78.85 18.8
L 78.85 25.7
Q 78.85 26.15 79.3 26.15
L 83 26.15
Q 84.1 26.1 84.8 25.25 85.5 24.45 85.4 23.35
L 85.4 22.9
Q 85.3 21.85 84.45 21.15
M 82.55 22.2
Q 83 22.2 83.3 22.55 83.65 22.9 83.6 23.35
L 83.6 23.55
Q 83.55 24 83.2 24.3 82.85 24.65 82.35 24.6
L 80.6 24.6 80.6 22.2 82.55 22.2
M 115.8 18.35
L 115 18.35
Q 114.55 18.35 114.55 18.8
L 114.55 25.7
Q 114.55 26.15 115 26.15
L 118.3 26.15
Q 118.55 26.25 118.7 26.15 119.8 26.1 120.5 25.25 121.2 24.45 121.1 23.35
L 121.1 22.9
Q 121 21.85 120.15 21.15 119.35 20.5 118.3 20.6
L 116.25 20.6 116.25 18.8
Q 116.25 18.35 115.8 18.35
M 116.3 24.6
L 116.3 22.2 118.25 22.2
Q 118.7 22.25 119 22.6 119.35 22.95 119.3 23.4
L 119.3 23.55
Q 119.25 24.05 118.9 24.35 118.55 24.65 118.05 24.6
L 116.3 24.6
M 107.3 21.05
Q 107.4 22.6 106.85 23.95 106.5 24.55 106 24.75
L 105.9 24.8
Q 105.6 25 105.8 25.3
L 106.2 26.1 106.2 26.15
Q 106.35 26.5 106.75 26.3 107.7 25.95 108.25 25 109.15 23.2 109 21.2
L 109 20 111.25 20 111.25 25.7
Q 111.25 26.15 111.75 26.15
L 112.55 26.15
Q 113 26.15 113 25.7
L 113 18.85
Q 113 18.4 112.55 18.4
L 107.75 18.35
Q 107.3 18.35 107.3 18.8
L 107.3 21.05
M 104.95 21.15
Q 104.95 19.75 104.05 18.95 103.15 18.15 101.5 18.15 99.85 18.15 98.95 18.95 98.05 19.75 98.05 21.15
L 98 23.35
Q 98 24.8 98.9 25.6 99.85 26.4 101.5 26.4 103.15 26.4 104.05 25.6 104.95 24.8 104.95 23.4
L 104.95 21.15
M 103.2 21.15
L 103.2 23.4
Q 103.2 24.8 101.45 24.8 99.75 24.8 99.75 23.4
L 99.75 21.15
Q 99.75 19.75 101.45 19.75 103.2 19.75 103.2 21.15
M 133.65 21.4
L 133.65 23.2
Q 133.65 26.4 137.1 26.4 139.15 26.65 140.35 24.95 140.7 24.45 140.15 24.2
L 139.65 23.9
Q 139.15 23.65 138.9 24.1 138.2 25 137.1 24.9 135.4 24.9 135.4 23.4
L 135.4 22.8 139.9 22.8
Q 140.6 22.8 140.6 22.2
L 140.6 21.25
Q 140.6 19.85 139.7 19.05 138.8 18.15 137.15 18.15 133.65 18.15 133.65 21.4
M 135.4 21.5
L 135.4 21.15
Q 135.4 19.65 137.15 19.65 138.85 19.65 138.85 21.15
L 138.85 21.5 135.4 21.5
M 127.65 18.35
L 126.85 18.35
Q 126.4 18.35 126.4 18.8
L 126.4 24.5 124.1 24.5 124.1 18.8
Q 124.1 18.35 123.65 18.35
L 122.8 18.35
Q 122.35 18.35 122.35 18.8
L 122.35 25.7
Q 122.35 26.15 122.8 26.15
L 131.75 26.15
Q 132.2 26.15 132.2 25.7
L 132.2 18.85
Q 132.2 18.4 131.75 18.4
L 130.9 18.35
Q 130.45 18.35 130.45 18.8
L 130.45 24.5 128.1 24.5 128.1 18.8
Q 128.1 18.35 127.65 18.35 Z"/>
</g>

<g id="_________4_0_Layer0_4_MEMBER_0_FILL">
<path fill="#000000" stroke="none" d="
M 223.3 23.7
L 223.1 23.85 222.4 24.2
Q 222.15 24.3 221.7 24.3 221.4 24.3 221.15 24.15
L 220.65 23.9 220.25 23.45
Q 220 23.1 220 22.85
L 224.6 22.85 224.95 22.7
Q 225.15 22.5 225.15 22.4 225.25 22.25 225.25 21.9 225.25 20.4 224.15 19.3 223.75 18.85 223 18.5 222.25 18.25 221.6 18.25 220.85 18.25 220.1 18.55 219.45 18.85 218.9 19.4 218.3 20.2 218.15 20.65 217.85 21.4 217.85 22.2 217.85 23 218.15 23.75 218.45 24.55 219 25 219.45 25.55 220.25 25.85 220.95 26.15 221.7 26.15
L 222.4 26.1 223.05 25.95 223.65 25.7 224.2 25.35 224.4 25.15 224.5 24.9 224.4 24.65 223.8 23.85 223.65 23.7
Q 223.5 23.6 223.3 23.7
M 223.05 20.8
L 223.25 21.3 220 21.3 220.25 20.75 220.6 20.35 221.1 20.1
Q 221.65 19.95 222.2 20.1 222.5 20.2 222.7 20.4
L 223.05 20.8 Z"/>
</g>

<g id="_________4_0_Layer0_4_MEMBER_1_FILL">
<path fill="#000000" stroke="none" d="
M 232.8 24.15
L 229.3 24.15 233.1 18.8 233.15 18.65
Q 233.25 18.65 233.15 18.55 233.2 18.5 233.15 18.45
L 233.1 18.35 226.9 18.35
Q 226.5 18.35 226.5 18.7
L 226.5 20
Q 226.6 20.3 226.9 20.25
L 229.9 20.25 226.05 25.6 226 25.7
Q 225.9 25.8 226 25.8 225.95 25.9 226 25.95
L 226.05 26 232.8 26 233.05 25.9
Q 233.15 25.8 233.15 25.65
L 233.15 24.5
Q 233.15 24.3 233.05 24.25 233 24.15 232.8 24.15 Z"/>
</g>

<g id="_________4_0_Layer0_4_MEMBER_2_FILL">
<path fill="#616161" stroke="none" d="
M 242.05 18.45
L 241.75 18.35 240.7 18.35 240.6 18.4 240.5 18.55 240.3 19.5 240 19.05 239.55 18.6 238.95 18.35
Q 238.6 18.2 238.15 18.2 237.35 18.2 236.6 18.5 235.95 18.8 235.4 19.35 235 19.8 234.65 20.6 234.35 21.35 234.35 22.2 234.35 23 234.65 23.75 235 24.55 235.45 25 235.85 25.5 236.6 25.85 237.35 26.15 238.15 26.15 238.65 26.15 238.9 26.05
L 239.45 25.8 239.85 25.4
Q 240.05 25.25 240.15 25
L 240.15 25.55 240.4 25.9
Q 240.55 26.05 240.75 26
L 241.75 26
Q 241.95 26 242.05 25.9 242.25 25.8 242.15 25.65
L 242.15 18.75
Q 242.2 18.6 242.05 18.45
M 236.8 20.75
Q 237.05 20.45 237.4 20.3 238.6 19.75 239.55 20.75
L 239.95 21.4 240.05 22.2 239.95 23 239.55 23.65
Q 239.35 23.9 238.95 24.1 238.6 24.25 238.15 24.25
L 237.4 24.1
Q 237.05 23.95 236.8 23.65
L 236.4 23 236.3 22.2
Q 236.3 21.8 236.45 21.4 236.5 21.15 236.8 20.75 Z"/>
</g>

<g id="_________4_0_Layer0_4_MEMBER_3_FILL">
<path fill="#616161" stroke="none" d="
M 249.55 18.4
Q 248.9 18.1 248.1 18.1 247.5 18.1 246.95 18.4 246.35 18.75 246.1 19.2
L 246 18.65 245.85 18.45 245.7 18.3 244.5 18.3
Q 244.3 18.3 244.2 18.45 244.05 18.6 244.1 18.75
L 244.05 28.5
Q 244.05 28.7 244.2 28.85
L 244.6 28.95 245.75 28.95
Q 246.05 28.95 246.15 28.85
L 246.25 28.5 246.25 25.25 246.6 25.55
Q 246.95 25.75 247.05 25.8 247.6 26.05 248.1 26 248.75 26.05 249.55 25.7 250.25 25.4 250.75 24.9 251.25 24.25 251.5 23.6 251.75 23 251.75 22.05 251.75 21.35 251.5 20.5 251.2 19.8 250.7 19.25 250.25 18.7 249.55 18.4
M 247.15 20.3
Q 247.55 20.15 247.85 20.15 248.2 20.15 248.55 20.3
L 249.1 20.7 249.45 21.35
Q 249.75 22.1 249.45 22.85 249.3 23.25 249.1 23.45 248.75 23.8 248.55 23.9 248.2 24.05 247.85 24.05 247.45 24.05 247.15 23.9 246.8 23.75 246.6 23.45
L 246.2 22.85
Q 246.05 22.45 246.1 22.05
L 246.05 22
Q 246.05 21.65 246.2 21.35
L 246.6 20.7 247.15 20.3 Z"/>
</g>

<g id="_________4_0_Layer0_4_MEMBER_4_FILL">
<path fill="#616161" stroke="none" d="
M 253.75 18.3
Q 253.55 18.3 253.4 18.45
L 253.3 18.75 253.3 28.55
Q 253.3 28.75 253.45 28.9 253.6 29.05 253.8 29
L 255 29
Q 255.2 29 255.35 28.85 255.5 28.7 255.5 28.5
L 255.5 25.25 255.8 25.55 256.25 25.8
Q 256.85 26.05 257.3 26 257.9 26.05 258.8 25.7 259.5 25.35 259.95 24.9 260.5 24.3 260.7 23.6 261 22.85 261 22.05 261 21.25 260.7 20.5 260.55 20.05 259.95 19.25 259.4 18.7 258.8 18.4 258.05 18.1 257.35 18.1 256.7 18.1 256.15 18.4 255.6 18.75 255.3 19.2
L 255.2 18.65 255.1 18.45 254.95 18.3 253.75 18.3
M 257.05 20.15
Q 257.45 20.15 257.75 20.3
L 258.3 20.7
Q 258.6 21.1 258.65 21.35 258.95 22.1 258.65 22.85 258.6 23.15 258.3 23.45 258.1 23.75 257.75 23.9 257.45 24.05 257.05 24.05 256.7 24.05 256.4 23.9 256.05 23.75 255.8 23.45 255.55 23.2 255.45 22.85 255.3 22.5 255.3 22.05
L 255.25 22
Q 255.25 21.75 255.45 21.35 255.6 20.95 255.85 20.7 256.15 20.4 256.4 20.3 256.7 20.15 257.05 20.15 Z"/>
</g>

<g id="_________4_0_Layer0_4_MEMBER_5_FILL">
<path fill="#FF5834" stroke="none" d="
M 195.4 31.45
Q 196 30.85 196 30 196 29.2 195.4 28.6 194.85 28 194 28
L 192 28
Q 191.15 28 190.55 28.6 190 29.15 190 30 190 30.85 190.55 31.45 191.15 32 192 32
L 194 32
Q 194.85 32 195.4 31.45
M 190.55 23.45
Q 191.15 24 192 24
L 198 24
Q 198.85 24 199.4 23.45 200 22.85 200 22 200 21.2 199.4 20.6 198.85 20 198 20
L 192 20
Q 191.15 20 190.55 20.6 190 21.15 190 22 190 22.85 190.55 23.45
M 210 32
Q 210.85 32 211.4 31.45 212 30.85 212 30 212 29.2 211.4 28.6 210.85 28 210 28
L 200 28
Q 199.15 28 198.55 28.6 198 29.15 198 30 198 30.85 198.55 31.45 199.15 32 200 32
L 210 32
M 202.5 23.45
Q 203.05 24 203.9 24
L 209.9 24
Q 210.75 24 211.3 23.45 211.9 22.85 211.85 22
L 211.9 22
Q 211.9 21.2 211.3 20.6 210.75 20 209.9 20
L 203.9 20
Q 203.1 20 202.5 20.6 201.9 21.2 201.9 22 201.9 22.85 202.5 23.45
M 203.9 14.1
L 204 14
Q 204 13.2 203.4 12.6 202.85 12 202 12
L 192 12
Q 191.15 12 190.55 12.6 190 13.15 190 14 190 14.85 190.55 15.45 191.15 16 192 16
L 202 16
Q 202.8 16 203.35 15.45 203.85 14.9 203.9 14.1
M 209.9 12
L 207.9 12
Q 207.1 12 206.5 12.6 205.9 13.2 205.9 14 205.9 14.85 206.5 15.45 207.05 16 207.9 16
L 209.9 16
Q 210.7 16 211.25 15.45 211.85 14.9 211.85 14.1
L 211.9 14
Q 211.9 13.2 211.3 12.6 210.75 12 209.9 12 Z"/>
</g>

<path id="Layer5_0_1_STROKES" stroke="#CCCCCC" stroke-width="1" stroke-linejoin="round" stroke-linecap="round" fill="none" d="
M 0.05 -0.5
L 300 -0.5 300 249.75 0.05 249.75 0.05 -0.5 Z"/>
</defs>

<g transform="matrix( 1, 0, 0, 1, 0,0) ">
<use xlink:href="#Layer5_0_1_STROKES"/>
</g>

<g transform="matrix( 1, 0, 0, 1, -132.85,125.05) ">
<g transform="matrix( 1, 0, 0, 1, -130.15,-16.55) ">
<use xlink:href="#_________3_0_Layer0_0_FILL"/>
</g>

<g transform="matrix( 1, 0, 0, 1, -130.15,-16.55) ">
<use xlink:href="#_________3_0_Layer0_1_FILL"/>
</g>

<g transform="matrix( 1, 0, 0, 1, -130.15,-16.55) ">
<use xlink:href="#_________3_0_Layer0_2_FILL"/>
</g>

<g transform="matrix( 1, 0, 0, 1, -130.15,-16.55) ">
<use xlink:href="#_________3_0_Layer0_3_FILL"/>
</g>

<g transform="matrix( 1, 0, 0, 1, -130.15,-16.55) ">
<use xlink:href="#_________3_0_Layer0_4_FILL"/>
</g>

<g transform="matrix( 1, 0, 0, 1, -130.15,-16.55) ">
<use xlink:href="#_________3_0_Layer0_5_FILL"/>
</g>

<g transform="matrix( 1, 0, 0, 1, -130.15,-16.55) ">
<use xlink:href="#_________3_0_Layer0_6_FILL"/>
</g>

<g transform="matrix( 1, 0, 0, 1, -130.15,-16.55) ">
<use xlink:href="#_________3_0_Layer0_7_FILL"/>
</g>

<g transform="matrix( 1, 0, 0, 1, -130.15,-16.55) ">
<use xlink:href="#_________3_0_Layer0_8_FILL"/>
</g>

<g transform="matrix( 1, 0, 0, 1, -130.15,-16.55) ">
<use xlink:href="#_________3_0_Layer0_9_FILL"/>
</g>

<g transform="matrix( 1, 0, 0, 1, -130.15,-16.55) ">
<use xlink:href="#_________3_0_Layer0_10_FILL"/>
</g>

<g transform="matrix( 1, 0, 0, 1, -130.15,-16.55) ">
<use xlink:href="#_________3_0_Layer0_11_FILL"/>
</g>

<g transform="matrix( 1, 0, 0, 1, -130.15,-16.55) ">
<use xlink:href="#_________3_0_Layer0_12_FILL"/>
</g>

<g transform="matrix( 1, 0, 0, 1, -130.15,-16.55) ">
<use xlink:href="#_________3_0_Layer0_13_FILL"/>
</g>

<g transform="matrix( 1, 0, 0, 1, -130.15,-16.55) ">
<use xlink:href="#_________3_0_Layer0_14_FILL"/>
</g>

<g transform="matrix( 1, 0, 0, 1, -130.15,-16.55) ">
<use xlink:href="#_________3_0_Layer0_15_FILL"/>
</g>

<g transform="matrix( 1, 0, 0, 1, -130.15,-16.55) ">
<use xlink:href="#_________3_0_Layer0_16_FILL"/>
</g>

<g transform="matrix( 1, 0, 0, 1, -130.15,-16.55) ">
<use xlink:href="#_________3_0_Layer0_17_FILL"/>
</g>

<g transform="matrix( 1, 0, 0, 1, -130.15,-16.55) ">
<use xlink:href="#_________3_0_Layer0_18_FILL"/>
</g>

<g transform="matrix( 1, 0, 0, 1, -130.15,-16.55) ">
<use xlink:href="#_________3_0_Layer0_19_FILL"/>
</g>

<g transform="matrix( 1, 0, 0, 1, -130.15,-16.55) ">
<use xlink:href="#_________3_0_Layer0_20_FILL"/>
</g>

<g transform="matrix( 1, 0, 0, 1, -130.15,-16.55) ">
<use xlink:href="#_________3_0_Layer0_21_FILL"/>
</g>

<g transform="matrix( 1, 0, 0, 1, -130.15,-16.55) ">
<use xlink:href="#_________3_0_Layer0_22_FILL"/>
</g>

<g transform="matrix( 1, 0, 0, 1, -130.15,-16.55) ">
<use xlink:href="#_________3_0_Layer0_23_FILL"/>
</g>

<g transform="matrix( 1, 0, 0, 1, -130.15,-16.55) ">
<use xlink:href="#_________3_0_Layer0_24_FILL"/>
</g>

<g transform="matrix( 1, 0, 0, 1, -130.15,-16.55) ">
<use xlink:href="#_________3_0_Layer0_25_FILL"/>
</g>

<g transform="matrix( 1, 0, 0, 1, -130.15,-16.55) ">
<use xlink:href="#_________3_0_Layer0_26_FILL"/>
</g>

<g transform="matrix( 1, 0, 0, 1, -130.15,-16.55) ">
<use xlink:href="#_________3_0_Layer0_27_FILL"/>
</g>

<g transform="matrix( 1, 0, 0, 1, -130.15,-16.55) ">
<use xlink:href="#_________3_0_Layer0_28_FILL"/>
</g>

<g transform="matrix( 1, 0, 0, 1, -130.15,-16.55) ">
<use xlink:href="#_________3_0_Layer0_29_FILL"/>
</g>

<g transform="matrix( 1, 0, 0, 1, -130.15,-16.55) ">
<use xlink:href="#_________3_0_Layer0_30_FILL"/>
</g>

<g transform="matrix( 1, 0, 0, 1, -130.15,-16.55) ">
<use xlink:href="#_________3_0_Layer0_31_FILL"/>
</g>

<g transform="matrix( 1, 0, 0, 1, -130.15,-16.55) ">
<use xlink:href="#_________3_0_Layer0_32_FILL"/>
</g>

<g transform="matrix( 1, 0, 0, 1, -130.15,-16.55) ">
<use xlink:href="#_________3_0_Layer0_33_FILL"/>
</g>

<g transform="matrix( 1, 0, 0, 1, -130.15,-16.55) ">
<use xlink:href="#_________3_0_Layer0_34_FILL"/>
</g>

<g transform="matrix( 1, 0, 0, 1, -130.15,-16.55) ">
<use xlink:href="#_________3_0_Layer0_35_FILL"/>
</g>

<g transform="matrix( 1, 0, 0, 1, -130.15,-16.55) ">
<use xlink:href="#_________3_0_Layer0_36_FILL"/>
</g>

<g transform="matrix( 1, 0, 0, 1, -130.15,-16.55) ">
<use xlink:href="#_________3_0_Layer0_37_FILL"/>
</g>

<g transform="matrix( 1, 0, 0, 1, -130.15,-16.55) ">
<use xlink:href="#_________3_0_Layer0_38_FILL"/>
</g>

<g transform="matrix( 1, 0, 0, 1, -130.15,-16.55) ">
<use xlink:href="#_________3_0_Layer0_39_FILL"/>
</g>
</g>

<g transform="matrix( 1, 0, 0, 1, -147,66) ">
<use xlink:href="#Layer3_0_FILL"/>
</g>

<g transform="matrix( 1, 0, 0, 1, -147,66) ">
<use xlink:href="#Layer3_1_FILL"/>
</g>

<g transform="matrix( 1, 0, 0, 1, -147,66) ">
<use xlink:href="#Layer3_2_FILL"/>
</g>

<g transform="matrix( 1, 0, 0, 1, -147,66) ">
<use xlink:href="#Layer3_4_FILL"/>
</g>

<g transform="matrix( 1, 0, 0, 1, -147,66) ">
<use xlink:href="#Layer3_5_FILL"/>
</g>

<g transform="matrix( 1, 0, 0, 1, -147,66) ">
<use xlink:href="#Layer3_6_FILL"/>
</g>

<g transform="matrix( 1, 0, 0, 1, -147,66) ">
<use xlink:href="#Layer3_7_FILL"/>
</g>

<g transform="matrix( 1, 0, 0, 1, -147,66) ">
<use xlink:href="#Layer3_8_FILL"/>
</g>

<g transform="matrix( 1, 0, 0, 1, -147,66) ">
<use xlink:href="#Layer3_9_FILL"/>
</g>

<g transform="matrix( 1, 0, 0, 1, -147,66) ">
<use xlink:href="#Layer3_10_FILL"/>
</g>

<g transform="matrix( 1, 0, 0, 1, -147,66) ">
<use xlink:href="#Layer3_11_FILL"/>
</g>

<g transform="matrix( 1, 0, 0, 1, -147,66) ">
<use xlink:href="#Layer3_12_FILL"/>
</g>

<g transform="matrix( 1, 0, 0, 1, -147,66) ">
<use xlink:href="#Layer3_13_FILL"/>
</g>

<g transform="matrix( 1, 0, 0, 1, -147,66) ">
<use xlink:href="#Layer3_14_FILL"/>
</g>

<g transform="matrix( 1, 0, 0, 1, -147,66) ">
<use xlink:href="#Layer3_15_FILL"/>
</g>

<g transform="matrix( 1, 0, 0, 1, 150,272) ">
<g transform="matrix( 1, 0, 0, 1, -150,-21) ">
<use xlink:href="#_________4_0_Layer0_0_FILL"/>
</g>

<g transform="matrix( 1, 0, 0, 1, -150,-21) ">
<use xlink:href="#_________4_0_Layer0_1_FILL"/>
</g>

<g transform="matrix( 1, 0, 0, 1, -150,-21) ">
<use xlink:href="#_________4_0_Layer0_2_FILL"/>
</g>

<g transform="matrix( 1, 0, 0, 1, -150,-21) ">
<use xlink:href="#_________4_0_Layer0_3_FILL"/>
</g>

<g transform="matrix( 1, 0, 0, 1, -150,-21) ">
<use xlink:href="#_________4_0_Layer0_4_MEMBER_0_FILL"/>
</g>

<g transform="matrix( 1, 0, 0, 1, -150,-21) ">
<use xlink:href="#_________4_0_Layer0_4_MEMBER_1_FILL"/>
</g>

<g transform="matrix( 1, 0, 0, 1, -150,-21) ">
<use xlink:href="#_________4_0_Layer0_4_MEMBER_2_FILL"/>
</g>

<g transform="matrix( 1, 0, 0, 1, -150,-21) ">
<use xlink:href="#_________4_0_Layer0_4_MEMBER_3_FILL"/>
</g>

<g transform="matrix( 1, 0, 0, 1, -150,-21) ">
<use xlink:href="#_________4_0_Layer0_4_MEMBER_4_FILL"/>
</g>

<g transform="matrix( 1, 0, 0, 1, -150,-21) ">
<use xlink:href="#_________4_0_Layer0_4_MEMBER_5_FILL"/>
</g>
</g>
</svg>
